<?xml version="1.0" encoding="utf-8"?>
<!-- Generator: Adobe Illustrator 23.0.3, SVG Export Plug-In . SVG Version: 6.00 Build 0)  -->
<svg version="1.1" id="Layer_1" xmlns="http://www.w3.org/2000/svg" xmlns:xlink="http://www.w3.org/1999/xlink" x="0px" y="0px"
	 viewBox="0 0 50 50" style="enable-background:new 0 0 50 50;" xml:space="preserve">
<style type="text/css">
	.st0{fill:#1E3D51;}
</style>
<g>
	<path class="st0" d="M39.4,40c-0.2,0-0.3-0.1-0.4-0.2L10.2,11c-0.2-0.2-0.2-0.6,0-0.8c0.2-0.2,0.6-0.2,0.8,0L39.8,39
		c0.2,0.2,0.2,0.6,0,0.8C39.7,39.9,39.6,40,39.4,40z"/>
</g>
<g>
	<path class="st0" d="M10.6,40c-0.2,0-0.3-0.1-0.4-0.2c-0.2-0.2-0.2-0.6,0-0.8L39,10.2c0.2-0.2,0.6-0.2,0.8,0c0.2,0.2,0.2,0.6,0,0.8
		L11,39.8C10.9,39.9,10.7,40,10.6,40z"/>
</g>
</svg>
