<?xml version="1.0" encoding="utf-8"?>
<!-- Generator: Adobe Illustrator 23.0.3, SVG Export Plug-In . SVG Version: 6.00 Build 0)  -->
<svg version="1.1" id="Layer_1" xmlns="http://www.w3.org/2000/svg" xmlns:xlink="http://www.w3.org/1999/xlink" x="0px" y="0px"
	 viewBox="0 0 50 50" style="enable-background:new 0 0 50 50;" xml:space="preserve">
<style type="text/css">
	.st0{fill:#1E3D51;}
</style>
<g>
	<g>
		<path class="st0" d="M25,50C11.2,50,0,38.8,0,25S11.2,0,25,0s25,11.2,25,25S38.8,50,25,50z M25,1.8C12.2,1.8,1.8,12.2,1.8,25
			S12.2,48.2,25,48.2S48.2,37.8,48.2,25S37.8,1.8,25,1.8z"/>
	</g>
	<g>
		<path class="st0" d="M25,35.6c-0.5,0-0.9-0.4-0.9-0.9V19c0-0.5,0.4-0.9,0.9-0.9s0.9,0.4,0.9,0.9v15.7C25.9,35.2,25.5,35.6,25,35.6
			z"/>
	</g>
	<g>
		<circle class="st0" cx="25" cy="14.3" r="1.1"/>
	</g>
</g>
</svg>
