<?xml version="1.0" encoding="utf-8"?>
<!-- Generator: Adobe Illustrator 23.0.3, SVG Export Plug-In . SVG Version: 6.00 Build 0)  -->
<svg version="1.1" id="Layer_1" xmlns="http://www.w3.org/2000/svg" xmlns:xlink="http://www.w3.org/1999/xlink" x="0px" y="0px"
	 viewBox="0 0 50 50" style="enable-background:new 0 0 50 50;" xml:space="preserve">
<style type="text/css">
	.st0{fill:#FFFFFF;}
</style>
<g>
	<path class="st0" d="M29.8,25c0,2.6-2.1,4.8-4.8,4.8s-4.8-2.1-4.8-4.8s2.1-4.8,4.8-4.8S29.8,22.4,29.8,25z"/>
	<path class="st0" d="M36.2,16.5c-0.2-0.6-0.6-1.2-1.1-1.7c-0.5-0.5-1-0.8-1.7-1.1c-0.5-0.2-1.3-0.4-2.7-0.5c-1.5-0.1-2-0.1-5.8-0.1
		c-3.8,0-4.3,0-5.8,0.1c-1.4,0.1-2.2,0.3-2.7,0.5c-0.6,0.2-1.2,0.6-1.7,1.1c-0.5,0.5-0.8,1-1.1,1.7c-0.2,0.5-0.4,1.3-0.5,2.7
		c-0.1,1.5-0.1,2-0.1,5.8c0,3.8,0,4.3,0.1,5.8c0.1,1.4,0.3,2.2,0.5,2.7c0.2,0.6,0.6,1.2,1.1,1.7c0.5,0.5,1,0.8,1.7,1.1
		c0.5,0.2,1.3,0.4,2.7,0.5c1.5,0.1,2,0.1,5.8,0.1c3.8,0,4.3,0,5.8-0.1c1.4-0.1,2.2-0.3,2.7-0.5c1.3-0.5,2.2-1.5,2.7-2.7
		c0.2-0.5,0.4-1.3,0.5-2.7c0.1-1.5,0.1-2,0.1-5.8c0-3.8,0-4.3-0.1-5.8C36.6,17.8,36.4,17,36.2,16.5z M25,32.4
		c-4.1,0-7.4-3.3-7.4-7.4s3.3-7.4,7.4-7.4c4.1,0,7.4,3.3,7.4,7.4S29.1,32.4,25,32.4z M32.7,19.1c-1,0-1.7-0.8-1.7-1.7
		s0.8-1.7,1.7-1.7s1.7,0.8,1.7,1.7C34.4,18.3,33.6,19.1,32.7,19.1z"/>
	<path class="st0" d="M25,0C11.2,0,0,11.2,0,25s11.2,25,25,25s25-11.2,25-25S38.8,0,25,0z M39.3,30.9c-0.1,1.5-0.3,2.6-0.7,3.5
		c-0.7,1.9-2.3,3.5-4.2,4.2c-0.9,0.4-2,0.6-3.5,0.7c-1.5,0.1-2,0.1-5.9,0.1c-3.9,0-4.4,0-5.9-0.1c-1.5-0.1-2.6-0.3-3.5-0.7
		c-1-0.4-1.8-0.9-2.5-1.7c-0.7-0.7-1.3-1.6-1.7-2.5c-0.4-0.9-0.6-2-0.7-3.5c-0.1-1.5-0.1-2-0.1-5.9s0-4.4,0.1-5.9
		c0.1-1.5,0.3-2.6,0.7-3.5c0.4-1,0.9-1.8,1.7-2.5c0.7-0.7,1.6-1.3,2.5-1.7c0.9-0.4,2-0.6,3.5-0.7c1.5-0.1,2-0.1,5.9-0.1
		s4.4,0,5.9,0.1c1.5,0.1,2.6,0.3,3.5,0.7c1,0.4,1.8,0.9,2.5,1.7c0.7,0.7,1.3,1.6,1.7,2.5c0.4,0.9,0.6,2,0.7,3.5
		c0.1,1.5,0.1,2,0.1,5.9S39.3,29.4,39.3,30.9z"/>
</g>
</svg>
