<?xml version="1.0" encoding="utf-8"?>
<!-- Generator: Adobe Illustrator 23.0.3, SVG Export Plug-In . SVG Version: 6.00 Build 0)  -->
<svg version="1.1" id="Layer_1" xmlns="http://www.w3.org/2000/svg" xmlns:xlink="http://www.w3.org/1999/xlink" x="0px" y="0px"
	 viewBox="0 0 50 72.5" style="enable-background:new 0 0 50 72.5;" xml:space="preserve">
<style type="text/css">
	.st0{fill:#1E3D51;}
</style>
<g>
	<g>
		<path class="st0" d="M25,72.5c-0.3,0-0.6-0.2-0.8-0.4L4,38.5c0,0,0,0,0-0.1C1.4,34.4,0,29.8,0,25C0,11.2,11.2,0,25,0
			s25,11.2,25,25c0,4.8-1.4,9.4-3.9,13.5c0,0,0,0,0,0.1L25.8,72.1C25.6,72.4,25.3,72.5,25,72.5z M5.6,37.7L25,69.9l19.4-32.2
			c0,0,0-0.1,0.1-0.1c2.4-3.8,3.7-8.1,3.7-12.6C48.2,12.2,37.8,1.8,25,1.8S1.8,12.2,1.8,25c0,4.5,1.3,8.8,3.7,12.6
			C5.5,37.6,5.5,37.6,5.6,37.7z"/>
	</g>
	<g>
		<path class="st0" d="M25,35.7c-5.8,0-10.5-4.7-10.5-10.5S19.2,14.7,25,14.7s10.5,4.7,10.5,10.5S30.8,35.7,25,35.7z M25,16.4
			c-4.8,0-8.7,3.9-8.7,8.7s3.9,8.7,8.7,8.7s8.7-3.9,8.7-8.7S29.8,16.4,25,16.4z"/>
	</g>
</g>
</svg>
