<?xml version="1.0" encoding="utf-8"?>
<!-- Generator: Adobe Illustrator 23.0.3, SVG Export Plug-In . SVG Version: 6.00 Build 0)  -->
<svg version="1.1" id="Layer_1" xmlns="http://www.w3.org/2000/svg" xmlns:xlink="http://www.w3.org/1999/xlink" x="0px" y="0px"
	 viewBox="0 0 50 50" style="enable-background:new 0 0 50 50;" xml:space="preserve">
<style type="text/css">
	.st0{fill:#1E3D51;}
</style>
<g>
	<g>
		<path class="st0" d="M25,50C11.2,50,0,38.8,0,25S11.2,0,25,0s25,11.2,25,25S38.8,50,25,50z M25,1.8C12.2,1.8,1.8,12.2,1.8,25
			S12.2,48.2,25,48.2S48.2,37.8,48.2,25S37.8,1.8,25,1.8z"/>
	</g>
	<g>
		<path class="st0" d="M21.8,23.7H9.3c-0.5,0-0.9-0.4-0.9-0.9c0-0.5,0.4-0.9,0.9-0.9h12.5c0.5,0,0.9,0.4,0.9,0.9
			C22.6,23.3,22.2,23.7,21.8,23.7z"/>
	</g>
	<g>
		<path class="st0" d="M21.8,29.3H9.3c-0.5,0-0.9-0.4-0.9-0.9c0-0.5,0.4-0.9,0.9-0.9h12.5c0.5,0,0.9,0.4,0.9,0.9
			C22.6,28.9,22.2,29.3,21.8,29.3z"/>
	</g>
	<g>
		<path class="st0" d="M24.6,39.1c-7.8,0-14.1-6.3-14.1-14.1s6.3-14.1,14.1-14.1c2.5,0,4.9,0.7,7.1,1.9c0.4,0.2,0.6,0.8,0.3,1.2
			c-0.2,0.4-0.8,0.6-1.2,0.3c-1.9-1.1-4-1.7-6.2-1.7c-6.8,0-12.3,5.5-12.3,12.3c0,6.8,5.5,12.3,12.3,12.3c2.2,0,4.3-0.6,6.2-1.7
			c0.4-0.2,1-0.1,1.2,0.3c0.2,0.4,0.1,1-0.3,1.2C29.5,38.5,27.1,39.1,24.6,39.1z"/>
	</g>
</g>
</svg>
