<?xml version="1.0" encoding="utf-8"?>
<!-- Generator: Adobe Illustrator 23.0.3, SVG Export Plug-In . SVG Version: 6.00 Build 0)  -->
<svg version="1.1" id="Update" xmlns="http://www.w3.org/2000/svg" xmlns:xlink="http://www.w3.org/1999/xlink" x="0px" y="0px"
	 viewBox="0 0 50 50" style="enable-background:new 0 0 50 50;" xml:space="preserve">
<style type="text/css">
	.st0{fill:#1E3D51;}
</style>
<g>
	<g>
		<path class="st0" d="M22.4,47.4C10.1,47.4,0,37.4,0,25S10.1,2.6,22.4,2.6S44.8,12.6,44.8,25c0,0.7-0.6,1.3-1.3,1.3
			c-0.7,0-1.3-0.6-1.3-1.3c0-10.9-8.9-19.8-19.8-19.8C11.5,5.2,2.6,14.1,2.6,25s8.9,19.8,19.8,19.8c7,0,13.6-3.8,17.1-9.8
			c0.4-0.6,1.1-0.8,1.8-0.5s0.8,1.1,0.5,1.8C37.7,43.2,30.3,47.4,22.4,47.4z"/>
	</g>
	<g>
		<path class="st0" d="M43.5,26.3c-0.2,0-0.4-0.1-0.6-0.2l-8-4.7c-0.6-0.4-0.8-1.1-0.5-1.8c0.4-0.6,1.1-0.8,1.8-0.5l7,4.1l4.5-6.5
			c0.4-0.6,1.2-0.7,1.8-0.3c0.6,0.4,0.7,1.2,0.3,1.8l-5.2,7.4C44.3,26.1,43.9,26.3,43.5,26.3z"/>
	</g>
</g>
</svg>
