<?xml version="1.0" encoding="utf-8"?>
<!-- Generator: Adobe Illustrator 23.0.3, SVG Export Plug-In . SVG Version: 6.00 Build 0)  -->
<svg version="1.1" xmlns="http://www.w3.org/2000/svg" xmlns:xlink="http://www.w3.org/1999/xlink" x="0px" y="0px"
	 viewBox="0 0 50 50" style="enable-background:new 0 0 50 50;" xml:space="preserve">
<style type="text/css">
	.st0{fill:#1E3D51;}
	.st1{display:none;}
	.st2{display:inline;fill:#F35C68;}
</style>
<g id="Layer_1">
	<g id="Group_150" transform="translate(448 -17.072)">
		<g id="Group_145" transform="translate(0 21.334)">
			<g id="Group_144" transform="translate(0 0)">
				<path id="Path_13" class="st0" d="M-405.3,7.9c-0.2-0.2-0.4-0.3-0.7-0.4h-33.9l-0.9-4.6c0-0.4-0.5-0.7-0.9-0.7h-5.4
					c-0.5,0-0.9,0.4-0.9,0.8c0,0.5,0.4,0.9,0.8,0.9c0,0,0.1,0,0.1,0h4.6l4.3,21.8c0.6,2.9,3.1,5,6.1,5h20.5c0.5,0,0.9-0.4,0.8-0.9
					c0-0.5-0.4-0.8-0.8-0.8h-20.3c-1.5,0-2.8-0.7-3.6-2l26-3.6c0.4,0,0.7-0.3,0.7-0.7l3.6-14.3C-405.1,8.2-405.2,8.1-405.3,7.9z
					 M-410.3,21.8l-26,3.4l-3.2-16.1h32.3L-410.3,21.8z"/>
			</g>
		</g>
		<g id="Group_147" transform="translate(4.928 35.297)">
			<g id="Group_146">
				<path id="Path_14" class="st0" d="M-437.7,18.6c-2.5,0-4.5,2-4.5,4.5c0,2.5,2,4.5,4.5,4.5c2.5,0,4.5-2,4.5-4.5
					C-433.2,20.6-435.2,18.6-437.7,18.6C-437.7,18.6-437.7,18.6-437.7,18.6z M-437.7,25.7c-1.5,0-2.7-1.2-2.7-2.7
					c0-1.5,1.2-2.7,2.7-2.7c1.5,0,2.7,1.2,2.7,2.7l0,0C-435.1,24.5-436.3,25.7-437.7,25.7z"/>
			</g>
		</g>
		<g id="Group_149" transform="translate(13.142 35.297)">
			<g id="Group_148">
				<path id="Path_15" class="st0" d="M-428.1,18.6c-2.5,0-4.5,2-4.5,4.5c0,2.5,2,4.5,4.5,4.5c2.5,0,4.5-2,4.5-4.5
					C-423.6,20.6-425.6,18.6-428.1,18.6C-428,18.6-428.1,18.6-428.1,18.6z M-428.1,25.7c-1.5,0-2.7-1.2-2.7-2.7
					c0-1.5,1.2-2.7,2.7-2.7c1.5,0,2.7,1.2,2.7,2.7l0,0C-425.5,24.5-426.6,25.7-428.1,25.7z"/>
			</g>
		</g>
	</g>
</g>
<g id="Layer_2" class="st1">
	<circle id="Ellipse_6" class="st2" cx="42.4" cy="9.1" r="7.6"/>
</g>
</svg>
